<svg xmlns:xlink="http://www.w3.org/1999/xlink" xmlns="http://www.w3.org/2000/svg" viewBox="0 0 357.09 246.81">
    <defs>
        <style>
            .cls-1{mask:url(#mask);filter:url(#luminosity-noclip-3);}.cls-10,.cls-11,.cls-12,.cls-13,.cls-14,.cls-15,.cls-2,.cls-5,.cls-6,.cls-8{fill-rule:evenodd;}.cls-2,.cls-4{mix-blend-mode:multiply;}.cls-2{fill:url(#linear-gradient);}.cls-3{mask:url(#mask-2);filter:url(#luminosity-noclip-4);}.cls-4{fill:url(#linear-gradient-2);}.cls-5{fill:#5b7e31;}.cls-16,.cls-6{fill:#211915;}.cls-7{mask:url(#mask-3);}.cls-8{fill:url(#linear-gradient-3);}.cls-14,.cls-9{fill:#f1d100;}.cls-10{fill:#e6b400;}.cls-11{fill:#050800;}.cls-12{fill:url(#linear-gradient-4);}.cls-13{fill:url(#linear-gradient-5);}.cls-15{fill:#feee00;}.cls-17{mask:url(#mask-4);}.cls-18{fill:url(#linear-gradient-6);}.cls-19{fill:#444242;}.cls-20{filter:url(#luminosity-noclip-2);}.cls-21{filter:url(#luminosity-noclip);}
        </style>
        <filter id="luminosity-noclip" x="108.09" y="-8513.16" width="151.07" height="32766"
                filterUnits="userSpaceOnUse" color-interpolation-filters="sRGB">
            <feFlood flood-color="#fff" result="bg"/>
            <feBlend in="SourceGraphic" in2="bg"/>
        </filter>
        <mask id="mask" x="108.09" y="-8513.16" width="151.07" height="32766" maskUnits="userSpaceOnUse">
            <g class="cls-21"/>
        </mask>
        <linearGradient id="linear-gradient" x1="108.09" y1="101.99" x2="259.16" y2="101.99"
                        gradientUnits="userSpaceOnUse">
            <stop offset="0" stop-color="#b8b8b8"/>
            <stop offset="0.07" stop-color="#949494"/>
            <stop offset="0.17" stop-color="#6d6d6d"/>
            <stop offset="0.27" stop-color="#4b4b4b"/>
            <stop offset="0.37" stop-color="#303030"/>
            <stop offset="0.49" stop-color="#1a1a1a"/>
            <stop offset="0.62" stop-color="#0b0b0b"/>
            <stop offset="0.77" stop-color="#030303"/>
            <stop offset="1"/>
        </linearGradient>
        <filter id="luminosity-noclip-2" x="82.94" y="-8513.16" width="127.21" height="32766"
                filterUnits="userSpaceOnUse" color-interpolation-filters="sRGB">
            <feFlood flood-color="#fff" result="bg"/>
            <feBlend in="SourceGraphic" in2="bg"/>
        </filter>
        <mask id="mask-2" x="82.94" y="-8513.16" width="127.21" height="32766" maskUnits="userSpaceOnUse">
            <g class="cls-20"/>
        </mask>
        <linearGradient id="linear-gradient-2" x1="82.94" y1="52.82" x2="210.15" y2="52.82"
                        xlink:href="#linear-gradient"/>
        <filter id="luminosity-noclip-3" x="108.09" y="88.3" width="151.07" height="27.38" filterUnits="userSpaceOnUse"
                color-interpolation-filters="sRGB">
            <feFlood flood-color="#fff" result="bg"/>
            <feBlend in="SourceGraphic" in2="bg"/>
        </filter>
        <mask id="mask-3" x="108.09" y="88.3" width="151.07" height="27.38" maskUnits="userSpaceOnUse">
            <g class="cls-1">
                <path class="cls-2"
                      d="M259.16,110.82c-14.08-8.74-28.24-16.68-40.06-16.68h-.43l-.35-.07c-20.74-3.77-43.57-5.53-71.82-5.53-4.58,0-9.33,0-14.52.14h-.47l-.45-.1a14.05,14.05,0,0,0-2.9-.28,35.41,35.41,0,0,0-7.92,1.11c-1.55.38-3.13.8-4.74,1.24l-7.41,12.87c24.64,7.59,56.43,12.16,91.15,12.16A358.66,358.66,0,0,0,259.16,110.82Z"/>
            </g>
        </mask>
        <linearGradient id="linear-gradient-3" x1="108.09" y1="101.99" x2="259.16" y2="101.99"
                        gradientUnits="userSpaceOnUse">
            <stop offset="0" stop-color="#f8f8f8"/>
            <stop offset="0.05" stop-color="#d8d7d7"/>
            <stop offset="0.14" stop-color="#aeabaa"/>
            <stop offset="0.23" stop-color="#888482"/>
            <stop offset="0.32" stop-color="#686360"/>
            <stop offset="0.42" stop-color="#4e4845"/>
            <stop offset="0.53" stop-color="#3a332f"/>
            <stop offset="0.64" stop-color="#2c2420"/>
            <stop offset="0.79" stop-color="#241c18"/>
            <stop offset="1" stop-color="#211915"/>
        </linearGradient>
        <linearGradient id="linear-gradient-4" x1="325.75" y1="172.88" x2="307.34" y2="182.46"
                        gradientUnits="userSpaceOnUse">
            <stop offset="0" stop-color="#293216"/>
            <stop offset="0.63" stop-color="#93b635"/>
            <stop offset="1" stop-color="#779f36"/>
        </linearGradient>
        <linearGradient id="linear-gradient-5" x1="118.45" y1="197.36" x2="204.88" y2="170.02"
                        xlink:href="#linear-gradient-4"/>
        <filter id="luminosity-noclip-4" x="82.94" y="5.31" width="127.21" height="95.03" filterUnits="userSpaceOnUse"
                color-interpolation-filters="sRGB">
            <feFlood flood-color="#fff" result="bg"/>
            <feBlend in="SourceGraphic" in2="bg"/>
        </filter>
        <mask id="mask-4" x="82.94" y="5.31" width="127.21" height="95.03" maskUnits="userSpaceOnUse">
            <g class="cls-3">
                <path class="cls-4"
                      d="M150.19,5.31c-10.1,0-19.65,6.9-26.9,19.44L82.94,94.65a158,158,0,0,0,15,5.69L137,32.65C141.89,24.14,147,21.1,150.19,21.1s8.3,3,13.22,11.55l27.19,47.1,2.17.2,1.4.14c5.35.52,10.32,1.12,15.2,1.82l.78.12L177.09,24.75C169.84,12.21,160.29,5.31,150.19,5.31Z"/>
            </g>
        </mask>
        <linearGradient id="linear-gradient-6" x1="82.94" y1="52.82" x2="210.15" y2="52.82"
                        xlink:href="#linear-gradient-3"/>
    </defs>
    <title>Ativo 2</title>
    <g id="Camada_2" data-name="Camada 2">
        <g id="Layer_1" data-name="Layer 1">
            <path class="cls-5"
                  d="M132.15,84.73l-.09,0,.07,0Zm223.21,71.41c-4.2-9.38-9.56-17.22-24.94-21.56-12.36-3.65-25.69-6.33-38.92-9.1-.12-.14-.22-.29-.33-.43l-.29-.42-.12-.19a4.23,4.23,0,0,1-.24-.4l-.12-.22c-.07-.12-.13-.25-.19-.38a1.75,1.75,0,0,1-.11-.24c-.06-.12-.11-.24-.16-.36a2.6,2.6,0,0,1-.1-.25c0-.12-.09-.24-.14-.35s-.05-.17-.08-.25-.09-.24-.13-.37a.88.88,0,0,0-.05-.15c-.11-.34-.21-.69-.32-1-1.21-3.13-5.35-3.76-11.34-2.81-20.13-12.21-40.88-27.49-58.54-27.45-2.63-.47-5.26-.9-7.9-1.31l-2.92-.44c-5-.72-9.92-1.3-14.9-1.79l-1.36-.14c-1.53-.15-3-.27-4.58-.4l-.86-.07q-8.06-.65-16.13-1h-.2c-3.51-.15-7-.25-10.56-.32h-.35l-3.27,0-2.2,0H151.8l-3.25,0h-1.4q-7.49,0-15,.13h0l-.13,0h.05a6.52,6.52,0,0,0-1-.17l-.81-.09-.07,0-.59,0-.44,0h-.91l-1,0-.77,0-.94.09-.49.06c-.33,0-.65.08-1,.13l-.5.07-1,.17-.58.1-.92.19-1.52.33c-1.06.26-2.11.54-3.18.82l-.6.17c-.86.22-1.71.45-2.57.69h0l-.06,0-3.43,6-8.32,14.46h0L54.41,189.26A49.09,49.09,0,0,1,55.83,202c0,9.05-1.73,16.39-3.86,16.39S48.1,211,48.1,202c0-.61,0-1.21,0-1.79l-2.38,4.14c.15,9.09,1.75,16.48,5.46,21.42.36.2.74.39,1.12.56a77.71,77.71,0,0,0,17.35.28c2.6-1.72,4.91-6.13,6.59-16.38a15.26,15.26,0,0,0,5.32-1.4l49.57,5.6c.34,4.28,1.88,7.63,7.14,8.13,2,10.85,6.35,17.83,13.17,20.58a59,59,0,0,0,18.76,1.68c14.6-1.15,25.5-10.14,29.27-27.73l87-1.82c3.4,14.29,16.86,21.85,31.36,20.17,10.44-1.72,18.49-9.35,21.43-26,6.37-.88,15-1,15.26-4.06a4.61,4.61,0,0,0,.15-.84v-.12c0-.1,0-.21,0-.32s0-.25,0-.37a.28.28,0,0,1,0-.09,19,19,0,0,0-2.65-7.08l-.57-1.27c1-1.9,2.07-3.43,2.66-10.91a8.52,8.52,0,0,1,1.38-2.57,7.53,7.53,0,0,1,.72-.8c.68-.25.91-1.5.84-3.21C356.93,169.21,357.75,158.33,355.36,156.14ZM155.8,231.88c-8,0-14.54-13.24-14.54-29.59s6.51-29.59,14.54-29.59,14.55,13.25,14.55,29.59S163.84,231.88,155.8,231.88Z"/>
            <path class="cls-6"
                  d="M355.13,156.14c-4.19-9.38-9.55-17.22-24.93-21.56-12.36-3.65-25.69-6.33-38.92-9.1a13.28,13.28,0,0,1-2.38-5c-1.2-3.13-5.34-3.76-11.34-2.81C257.43,105.42,236.68,90.14,219,90.18c-28.81-5.23-57.91-6-87.11-5.45-3.56-.79-7.91-.26-12.6.84q-3.19.8-6.42,1.7l-58.7,102A49.09,49.09,0,0,1,55.61,202c0,9.05-1.73,16.39-3.86,16.39S47.88,211,47.88,202c0-.61,0-1.21,0-1.79l-2.39,4.14c.15,9.09,1.75,16.48,5.46,21.42.36.2.73.39,1.12.56a77.71,77.71,0,0,0,17.35.28c2.6-1.72,4.91-6.13,6.59-16.38a15.26,15.26,0,0,0,5.32-1.4l49.57,5.6c.34,4.28,1.88,7.63,7.15,8.13,2,10.85,6.35,17.83,13.16,20.58A59,59,0,0,0,170,244.79c14.6-1.15,25.5-10.14,29.27-27.73l87-1.82c3.4,14.29,16.86,21.85,31.36,20.17,10.44-1.72,18.49-9.35,21.43-26,6.37-.88,15-1,15.26-4.06.6-2.12-.51-5.22-2.51-8.82l-.57-1.27c1-1.9,2.07-3.43,2.66-10.91a8.22,8.22,0,0,1,2.1-3.37c.68-.25.91-1.5.84-3.21C356.71,169.21,357.53,158.33,355.13,156.14ZM155.58,231.88c-8,0-14.54-13.24-14.54-29.59s6.51-29.59,14.54-29.59,14.54,13.25,14.54,29.59S163.62,231.88,155.58,231.88Z"/>
            <g class="cls-7">
                <path class="cls-8"
                      d="M259.16,110.82c-14.08-8.74-28.24-16.68-40.06-16.68h-.43l-.35-.07c-20.74-3.77-43.57-5.53-71.82-5.53-4.58,0-9.33,0-14.52.14h-.47l-.45-.1a14.05,14.05,0,0,0-2.9-.28,35.41,35.41,0,0,0-7.92,1.11c-1.55.38-3.13.8-4.74,1.24l-7.41,12.87c24.64,7.59,56.43,12.16,91.15,12.16A358.66,358.66,0,0,0,259.16,110.82Z"/>
            </g>
            <path class="cls-9"
                  d="M13.38,198.28,114.76,22.65c8.92-15.43,21-22.22,32.71-20.38-13.6-6.08-28.69,0-39.29,18.41L6.8,196.3c-13.8,23.9-5.87,44,17.21,49C6.12,238.15,1,219.74,13.38,198.28Z"/>
            <path class="cls-10"
                  d="M283.43,124.22c-19.8-14.68-38.24-25.56-54.9-31.57a483.1,483.1,0,0,0-92.46-6,10.07,10.07,0,0,0-4.5-2c-1.49-.26-.55-.15.34,0,29.2-.5,58.3.22,87.11,5.45,17.66,0,38.41,15.24,58.54,27.45,6-.95,10.14-.32,11.34,2.81a14,14,0,0,0,2.11,4.69A21.64,21.64,0,0,1,283.43,124.22Z"/>
            <path class="cls-11"
                  d="M136.76,87.59c25.24-1.22,54.64-.21,91.77,5.68A251,251,0,0,1,279.72,123a15.83,15.83,0,0,1,3.28,1.35c-5.52-4.18-36.56-27.61-59.84-33.29,2,.56,3.51,1.16,5.13,1.69-26.09-4.71-61.65-7.25-92.1-5.81a7.28,7.28,0,0,0-3.49-1.53,8,8,0,0,1,3.19,2.19Z"/>
            <path class="cls-12"
                  d="M256.9,181.6c.13-1.71,57.19-1.81,76.34-1.33,1.39-.07,2.46.26,2,2.4-1.34,4.57-4.75,15.76-11.11,16.88-15.85,1.4-31.22,1.79-46.35,1.75-4.2-.09-8.34-.27-11.38-2.28,2,1.66,3.91,3.49,7.63,3.48,14.74.13,31.75,0,50.5-1.48,3.47-.4,5-2.56,7.1-5a74.11,74.11,0,0,0,6.69-13.53c.05-3.48-1-4.71-3.08-4.28-24.38.66-49,1.21-73.39.8C258.8,179,257.64,180.17,256.9,181.6Z"/>
            <path class="cls-13"
                  d="M177.24,207.23c-4.41-25.09-9.72-43.42-23.84-48.59-7.66-2.41-14.2.32-19.19,10.21-2.46,5.67-3.69,13.12-3.16,23.1-.26.09-.47.59-.62,1.48l-.25-.26c-.66-10.92-3-24.45,7.92-35.17,5.25-4.72,10.81-5.33,16.53-3.53,10.7,3.94,18.67,21,24.27,49.44-1.5,1.31-2.76,2.82,1.28,8.82A16.32,16.32,0,0,1,177.24,207.23Z"/>
            <path class="cls-6"
                  d="M86.06,143.62a2.53,2.53,0,0,0-1.63,2.23c-.28.91.15,1.27,1,1.28a24.33,24.33,0,0,0,6.86-.44c.94-.27,1.05-.94,1.13-1.64-.12-1-1-1.39-2.31-1.47A20.57,20.57,0,0,0,86.06,143.62Z"/>
            <path class="cls-14"
                  d="M106.64,110.77c-3.47.43-5.7,2.59-5.57,7.14-.3,3.13.43,5.49,2.74,6.54A96.29,96.29,0,0,0,119.92,127c3.4.87,10,1.76,6.45,2.63l.08.4c2.69-.17,5.64-.34,9.38-.5,2.29-1.58,1.55-4-.58-6.93l-1.57-2.34-4.39.19c-.12-.59-.78-.65-1.47-.67a2.62,2.62,0,0,1-.87-1.86c-1.33-4.61-3.22-6.64-8.59-7A57.63,57.63,0,0,0,106.64,110.77Z"/>
            <path class="cls-11"
                  d="M126.45,130l-.08-.4c3.22-.8-1.92-1.59-5.44-2.39l-.08-.1a25.33,25.33,0,0,0-4-.87l1-1.74,10.68,1c.28-4.31.57-4.77.86-5l.05,0,4.28-.19,1.57,2.34c2.13,2.89,2.87,5.35.58,6.93C132.09,129.68,129.14,129.85,126.45,130Z"/>
            <path class="cls-10"
                  d="M109.46,93.22l-8.32,14.46A95,95,0,0,0,95,129.2h.64a91.16,91.16,0,0,1,13.26-34.33c3.69-1.29,13.11-3,16-.38C122.8,91.71,117.82,90.75,109.46,93.22Z"/>
            <path class="cls-15"
                  d="M350.7,197.4a2.36,2.36,0,0,0,.83-.68h.36a2.56,2.56,0,0,0-.11-.24l-.57-1.27.51,1.15-.18.11A7.81,7.81,0,0,1,350.7,197.4Zm-4,1.29L336,200.45C340.46,199.81,344.08,199.27,346.71,198.69Zm8.42-42.55-.25-.55-.11.18c1.81,2.94-11.41,3.88-19.63,5.5-26.26,2.93-53.74,2.25-81.87-.42l-1.38-.14c-10.89-.78-21.41-1.92-31.77-3.23a52.24,52.24,0,0,1-19.4-5.35c-11.22-4.9-17.39-8.24-20.74-10.69.1-4,.92-7.23,2.58-9.51a2.92,2.92,0,0,1,2.51-1.38l3.9.12a14.52,14.52,0,0,0-2.75-1.11c-2-.65-4.17-1.19-6.29-1.72-6-1.48-12-2.82-18.12-4.09L158,123a3.47,3.47,0,0,1-.45-.17c-.39-.16-1-.44-1-1a.68.68,0,0,1,.23-.45l-.59,0c-5.38-.52-6.22-2-7.11-3.86l0,.28-2.24.3c-.48,0-.94.12-1.42.18l-.21,0-.16,0a41.83,41.83,0,0,0-6.46,5.2c-.24.23-.45.47-.68.71h0c1.45,5-1,5.5-4,5.31-.15.24-.31.48-.44.74a31.86,31.86,0,0,0-2,4.55c-.27.74-.5,1.49-.74,2.24-.12.4-.23.8-.34,1.19a1.21,1.21,0,0,0-.08.25s0,0,0,.06v0q-.65,10.44-1.28,20.87c-.4,6.56-.9,13-1.19,19.53a98.43,98.43,0,0,0,.42,12.91c.18,2,.39,3.88.6,5.8l.18,1.62c0,.2.05.38.07.58a.8.8,0,0,0,0,.15.34.34,0,0,0,0,.14,1.06,1.06,0,0,1,0,.15c.14.94.43,2.2-.43,2.79a1.24,1.24,0,0,1-.3.16,2.84,2.84,0,0,1-.44.15,4.82,4.82,0,0,1-1.38.09,3.73,3.73,0,0,1-.47,0h-.22q-27.83-1.69-55.63-3.39c-1.85.29-3.21-1.14-4.19-2.48a1.84,1.84,0,0,1-.24-.51c-.23-.62-.47-1.25-.7-1.88-1-2.8-2.08-5.6-3.06-8.43-.82-2.34-1.61-4.68-2.39-7l-.85,1.46c1.74,6.42,3.2,14,4.83,20.9.2,1.53.49,2.91,1.76,2.64L130.55,210c-.66-11.61-.5-17.7.5-18.05-.53-10,.7-17.43,3.16-23.1,5-9.89,11.53-12.62,19.19-10.21,14.12,5.17,19.43,23.5,23.84,48.59,1,2.78,2.19,5.25,3.91,6.31,49.11-.47,97.46-.73,157.77-4.3l.14.11c6.36-.87,14.95-1,15.23-4a6.92,6.92,0,0,0-.26-3.78l-.5.3c-31.4,2-62.7,3.66-93.6,4.18-28.59.55-55.18-.16-80-2,2.72-2.2,7-2.89,11.66-3.11l.48.07c22.21,2.17,43.37,3,64.09,3.15l3.07.73-5.49-1.59a5.05,5.05,0,0,1-.52,0c-18.22-.45-36.16-1.07-50.91-3.55-1.8-6.85-2.47-12.82,1.26-15.39l-1,.37c1.93-1.58,4.63-1.93,7.67-1.75,13,1.26,23.47,2.61,30.32,4.09,10,1.63,14.63,9.44,19.6,18.06,26.85-.19,52.13-1,74.05-3.15l.73-1.28H335a100.73,100.73,0,0,1,6.22-11.23c1.87-3.64,8-5.7,14-7.79h.18l-.11.14a7.53,7.53,0,0,1,.72-.8c.68-.25.91-1.5.84-3.21C356.71,169.21,357.53,158.33,355.13,156.14ZM338,183.62a87.07,87.07,0,0,1-6.41,12.5c-1.87,2.56-3.74,4.18-6.41,4.73-17.3,1-33.23,1.38-48.49,1.53A11.42,11.42,0,0,1,265.82,198c-7.81-11.75-9.48-15.61-8.7-16.31.6-2.1,2.82-2.58,5.49-2.6,23.91,1.63,47.55,1,71.06-.61C337.31,177.56,338.72,179.28,338,183.62ZM94.64,129.25a129.08,129.08,0,0,1,5.61-19.93L89.46,128.07c-.23,1-.44,1.93-.65,2.88l5.83-.71ZM126.73,97q2.91,6.46,5.25,12.92l.14.85c1.61,4.38,3.64,8.76,5.66,13.14.41-.43.83-.85,1.27-1.26a44.74,44.74,0,0,1,5.65-4.44A.84.84,0,0,1,145,118l1-.13,3-.39-.07-.15-9-20.7c-2.65-6.53-5.49-11.47-8.83-11.87L130,84.43a35,35,0,0,0-10.66,1.14q-3.16.8-6.36,1.68l-1,1.77.93-.24a41.22,41.22,0,0,1,5.86-1c.65-.07,1.3-.11,2-.13,3.26-.12,6.22.54,8.29,2.77A7.68,7.68,0,0,1,130.52,93c.08.23.17.45.24.69s.07.26.11.38,0,.2,0,.14c.6,1.5,1.24,3,1.83,4.51,1.55,4,3,8.09,4.4,12.19.24.73.49,1.46.74,2.18a1.14,1.14,0,0,1,.09.3,3.47,3.47,0,0,1-.13.75c-.05.25-.08.45-.13.7-.35,1.89-.71,3.77-1.05,5.66l-.31,0q.66-3.53,1.3-7.05c-.12-.31-.23-.65-.34-1l-.88-2.56c-1.32-3.8-2.64-7.59-4.13-11.31-.37-.89-.72-1.8-1.08-2.69a16.45,16.45,0,0,1-.7-1.7,8.7,8.7,0,0,0-1.1-2.56,7.33,7.33,0,0,0-4-3,13.88,13.88,0,0,0-2.8-.53,18.5,18.5,0,0,0-2.58,0,27.09,27.09,0,0,0-3.56.41c-1.65.29-3.26.67-4.84,1.09l-2.19,3.79C118.65,90.46,124.5,91.57,126.73,97Zm.92,77.68c0-.64.08-1.27.11-1.9s.09-1.27.12-1.9L128,169c0-.63.08-1.27.12-1.9s.08-1.26.11-1.9.09-1.26.12-1.9.08-1.26.13-1.89.07-1.27.12-1.9.07-1.27.12-1.9.08-1.27.11-1.9.09-1.27.12-1.9l.12-1.9c.05-.63.08-1.26.12-1.9l.12-1.89c0-.64.08-1.27.11-1.9s.09-1.27.13-1.9l.12-1.9c0-.63.07-1.27.12-1.9s.08-1.27.12-1.9a2.08,2.08,0,0,1,.11-.41l.27-.88q.39-1.35.87-2.67a31.46,31.46,0,0,1,2.36-5.1l-.26,0c-15.9.72-30.59,1.55-43.81,2.51l.07,0a48.32,48.32,0,0,0-3.11,5.13c-.31.58-.56,1.21-.82,1.82-.06.14-.12.3-.18.45a1.51,1.51,0,0,1-.06.18,234.47,234.47,0,0,0-2.25,29.73c-.08,4.7,0,9.4.21,14,0,1.1.1,2.2.16,3.28,0,.45,0,.9.08,1.35v.14a.86.86,0,0,1,0,.16c0,.24,0,.18,0,.12a39.06,39.06,0,0,0,1.23,4.33c.13.4.26.78.41,1.17l.16.46c0,.07,0,.13.06.18a.73.73,0,0,0,0,.12c0,.09,0,.05,0,0a6.29,6.29,0,0,1,.73,1.89,3.72,3.72,0,0,1,.09.68,5.49,5.49,0,0,1-1.1,3.29l32.36,2,2.79.18,2.78.16c1.32.08,2.42.19,3.62.23,1,.05,2-.1,2.1-1.14a5.29,5.29,0,0,0,0-.79c-.28-2.07-.52-4.22-.74-6.33-.29-2.73-.54-5.49-.65-8.29a87.83,87.83,0,0,1,.11-10Q127.58,175.64,127.65,174.69Zm30-52.11a2.13,2.13,0,0,0,.38.14h0l5.76,1.13c4.74,1,9.47,2,14.1,3.15,2.74.69,5.52,1.44,8.19,2.26.54.16,1.06.35,1.58.55a7.5,7.5,0,0,1,1.77.88,313.86,313.86,0,0,1,42.91,4.6l3.53,3.1c10.49-1.59,35.48,0,57.05.29,12.48,0,25.11.32,38,1.41l-1.56-2.54c-.65-1.89,0-2.49.85-2.83l.08-.12-.08,0c-12.36-3.65-25.69-6.33-38.92-9.1l-.18-.22-.15,0c-2.88-.25-4.95-.5-6.81-.75-39-4.52-81.56-4.76-127.2-3.18l.06,0c-.11.13-.26.26-.24.43C156.8,122.24,157.37,122.45,157.68,122.58ZM65.19,194.06c.23.63.48,1.26.71,1.89.09.23.17.46.25.7s.13.34.2.5a1.3,1.3,0,0,1,.05.14c.17.25.37.48.55.71a3.66,3.66,0,0,0,3.15,1.69l.15,0c2.79.17,5.57.35,8.36.51l2.78.18,3.58.22h0a6.16,6.16,0,0,0,1-2.1,5,5,0,0,0-.66-3.57,3.8,3.8,0,0,1-.24-.62c-.16-.45-.33-.89-.47-1.35A34.3,34.3,0,0,1,83.4,189c0-.16-.09-.34-.12-.5-.07-.44,0-.92-.08-1.37-.07-1-.12-2.07-.18-3.12q-.15-3.13-.22-6.3a224.33,224.33,0,0,1,.81-25.54c.27-3.06.61-6.09,1-9.09.1-.72.19-1.45.3-2.18,0-.25.06-.48.1-.71a2.34,2.34,0,0,1,.09-.59c.11-.33.25-.65.38-1a36.68,36.68,0,0,1,3.81-6.57l-2.2.16L60,179.26q1.65,5,3.43,10Q64.3,191.68,65.19,194.06Z"/>
            <path class="cls-16"
                  d="M155.8,227.28a3,3,0,0,0,1.06-.22h-2.11A2.91,2.91,0,0,0,155.8,227.28ZM192.59,81.91l1.39.14c5.31.53,10.25,1.12,15.1,1.81l2.11.33.85.13,1.88.29L178.8,23.76c-15.74-27.24-41.48-27.24-57.22,0L21.42,197.28C5.69,224.53,18.55,246.81,50,246.81h98.45c-6.71-3.24-11.36-9.87-13.88-19.75H50c-9,0-13.65-2.51-14.89-4.67S34,215,38.52,207.15L138.68,33.64c4.51-7.8,9-10.56,11.51-10.56s7,2.76,11.51,10.56l27.7,48Zm90.48,138-17.2.36a5.34,5.34,0,0,1-.61,2.11c-1.24,2.16-5.89,4.67-14.89,4.67H201.22c-3.95,9.55-10.51,16.28-19.24,19.75h68.39c19.88,0,32.33-8.9,34.83-22.33A30.11,30.11,0,0,1,283.07,219.92Z"/>
            <path class="cls-14"
                  d="M131.77,92.53l.09.26c0,.15.11.3.16.46l0,.11c0,.06,0,.13.06.2l.08.22v0c.2.5.4,1,.61,1.48.4,1,.79,1.92,1.17,2.89,1.38,3.59,2.78,7.48,4.42,12.26.13.4.27.81.41,1.22l.33,1a2,2,0,0,1,.15.62,3.1,3.1,0,0,1-.11.93l0,.18c0,.22-.07.39-.11.6l-.24,1.26c-.28,1.49-.55,3-.82,4.47l-.06.33c.09.22.19.43.29.64a45.14,45.14,0,0,1,5.76-4.52,1.71,1.71,0,0,1,.74-.38l.08,0,.74-.1,1.63-.2-8.35-19.28c-1.07-2.63-4.32-10.64-7.76-11h-.12l-1.19-.37q-.74-.06-1.53-.06a32.47,32.47,0,0,0-5.91.62A10.67,10.67,0,0,1,130,89.48,9,9,0,0,1,131.77,92.53Zm-.47,38.41c-15.2.7-29,1.49-41,2.35a46.19,46.19,0,0,0-2.7,4.54,16.71,16.71,0,0,0-.7,1.54l-.09.21a3.62,3.62,0,0,0-.13.35l0,0c-.59,4.12-1,8.33-1.4,12.58A247,247,0,0,0,126.93,165c0-.59.08-1.18.11-1.8l.12-1.89c0-.33,0-.65.06-1s0-.62.06-.91c0-.65.08-1.28.13-1.9,0-.3,0-.59,0-.89s0-.67.06-1c0-.62.08-1.26.12-1.9,0-.33.12-1.9.12-1.9l.06-1,.06-.89c0-.58.07-1.15.11-1.73V148l.06-1c0-.31.07-1.23.07-1.23,0-.53.08-1.07.1-1.62,0-.31,0-.62.06-.94s0-.64.07-1l.06-1c0-.32,0-.63.06-.92q0-.94.12-1.89a2,2,0,0,1,.14-.65v0s.19-.64.28-.92c.29-1,.59-1.9.89-2.74A32.51,32.51,0,0,1,131.3,130.94ZM251.79,162c-9.82-.71-20.23-1.77-31.77-3.24a53.28,53.28,0,0,1-19.83-5.45c-10.33-4.52-17.2-8.06-21-10.84l-.56-.41,0-.68c.11-4.39,1-7.73,2.78-10.19a3.79,3.79,0,0,1,1.28-1.3c-1.09-.3-2.17-.56-3.12-.8-5.32-1.32-11.06-2.62-18.06-4.08l-3.84-.8a2.52,2.52,0,0,1-.57-.19l-.12,0a3,3,0,0,1-1.63-1.36c-4.34-.52-5.9-1.74-6.92-3.41l-1.46.2-.69.08-.76.1a40.92,40.92,0,0,0-6,4.87,1.85,1.85,0,0,1-.14.14c.5,2.12.35,3.68-.47,4.76a4.8,4.8,0,0,1-4,1.55h-.26a31.69,31.69,0,0,0-1.92,4.37c-.2.55-.38,1.11-.56,1.67l-.16.51c-.12.39-.23.78-.33,1.16l0,.06,0,.08,0,.1q-.63,10.35-1.27,20.71c-.12,2-.26,4-.39,6l4.12.8c3.8-6.58,8.63-9.92,14.39-9.92a18.24,18.24,0,0,1,5.43.9c6.25,2.29,10.86,7,14.47,13.8,12.74,1.19,26,1.82,39.69,1.82,30.43,0,59-3.12,83.7-8.59-12.07-.21-24.76-1-38.57-2.27ZM82.36,151.36c.25-2.64.55-5.41.94-8.47l.1-.75.15-1.17-5,8.7C79.79,150.24,81.06,150.81,82.36,151.36Zm11-22.4c.58-2.64,1.19-5.45,2-8.43l-4.62,8c-.07.28-.14.57-.2.85l2.83-.34Zm234.79,9.16,0-.14a4.3,4.3,0,0,1-.21-2.7c-10.71-3.05-22.27-5.46-33.47-7.8l-3.43-.71-.48-.14,0,0c-2.42-.22-4.44-.44-6.5-.72-23.58-2.73-49.83-4.06-80.25-4.06-12.44,0-25.62.22-40.11.67l.44.08c5.58,1.15,10.08,2.15,14.15,3.16,3,.74,5.74,1.51,8.25,2.28.64.19,1.23.41,1.68.58a10,10,0,0,1,1.7.8A312.87,312.87,0,0,1,232.57,134l.37.06,3.35,2.95a110.43,110.43,0,0,1,13.68-.62c6.66,0,14.43.23,22.65.48,6.74.21,13.71.42,20.31.5h1.56c12.31,0,23.45.4,33.94,1.21ZM127.93,96.47c1.87,4.15,3.65,8.53,5.28,13l0,.12.15.84c.72,1.94,1.52,3.9,2.37,5.86.18-1,.35-1.89.52-2.83-.08-.22-.15-.45-.22-.66l-.89-2.55c-1.39-4-2.66-7.66-4.1-11.25-.19-.45-.37-.91-.55-1.37s-.35-.89-.53-1.32c-.07-.17-.15-.33-.22-.5a9.19,9.19,0,0,1-.53-1.36,7.38,7.38,0,0,0-.92-2.16,6.06,6.06,0,0,0-3.27-2.49,12.91,12.91,0,0,0-2.52-.48c-.35,0-.75,0-1.18,0s-.83,0-1.24,0a28.72,28.72,0,0,0-3.39.39c-1.32.24-2.7.55-4.21.93l-.32.56a26.36,26.36,0,0,1,5.75-.73C123,90.47,126.31,92.5,127.93,96.47Z"/>
            <g class="cls-17">
                <path class="cls-18"
                      d="M150.19,5.31c-10.1,0-19.65,6.9-26.9,19.44L82.94,94.65a158,158,0,0,0,15,5.69L137,32.65C141.89,24.14,147,21.1,150.19,21.1s8.3,3,13.22,11.55l27.19,47.1,2.17.2,1.4.14c5.35.52,10.32,1.12,15.2,1.82l.78.12L177.09,24.75C169.84,12.21,160.29,5.31,150.19,5.31Z"/>
            </g>
            <path class="cls-19"
                  d="M162.05,82.75s-28.11.28-31.52.41L127.12,74l25.38.27a5.61,5.61,0,0,1,5.18,2.46A64.8,64.8,0,0,0,162.05,82.75Z"/>
            <path class="cls-16"
                  d="M128.34,83.16s-2.18-7.91-2.86-8.18-5,.68-5,.68-1.09.54-1.09,2.59-.14,5.87-.14,5.87Z"/>
        </g>
    </g>
</svg>